ply
format ascii 1.0
comment Written by HALCON (export v1.0)
element vertex 220
property float x
property float y
property float z
property float nx
property float ny
property float nz
element face 444
property list uchar int vertex_index
end_header
6.750000e-003 1.500000e-004 -1.004710e-002 9.710218e-001 -3.515559e-002 -2.363911e-001
6.750000e-003 1.500000e-004 -1.500000e-004 9.998793e-001 -1.098768e-002 1.098768e-002
6.675000e-003 7.500000e-005 -7.500000e-005 6.691288e-001 -5.718620e-001 4.745951e-001
6.600000e-003 0.000000e+000 -9.916210e-003 1.189310e-001 -9.925733e-001 -2.556460e-002
5.015400e-003 1.500000e-004 -1.053860e-002 3.680204e-001 -1.666991e-002 -9.296682e-001
6.750000e-003 3.128720e-003 -6.657810e-003 4.176639e-001 6.273278e-001 6.572798e-001
6.750000e-003 2.572650e-003 -5.598290e-003 8.164320e-001 5.478092e-001 1.826031e-001
6.750000e-003 4.113490e-003 -7.337540e-003 3.760076e-001 2.571119e-001 8.902313e-001
6.750000e-003 5.301340e-003 -7.481770e-003 8.292808e-001 -1.118295e-001 5.475286e-001
6.750000e-003 9.850000e-003 -1.004710e-002 9.095812e-001 3.045177e-002 -4.144089e-001
3.000000e-004 3.128720e-003 -6.657810e-003 -4.955604e-002 7.971442e-001 6.017519e-001
3.000000e-004 4.113490e-003 -7.337540e-003 -4.979586e-002 4.266294e-001 9.030547e-001
6.750000e-003 2.572650e-003 -4.401710e-003 3.291215e-001 9.322814e-001 -1.501014e-001
3.000000e-004 2.572650e-003 -5.598290e-003 -5.026511e-002 9.854299e-001 1.624849e-001
0.000000e+000 2.477290e-003 -6.214870e-003 -9.999719e-001 6.896358e-003 2.955582e-003
0.000000e+000 3.254230e-003 -7.189130e-003 -9.999952e-001 9.794272e-004 2.938282e-003
3.000000e-004 5.301340e-003 -7.481770e-003 -4.782725e-002 -4.145028e-002 9.979952e-001
0.000000e+000 4.376940e-003 -7.729800e-003 -9.996163e-001 5.043473e-003 2.723475e-002
0.000000e+000 9.850000e-003 -2.506210e-002 -9.999758e-001 6.882823e-003 9.832603e-004
0.000000e+000 1.500000e-004 -4.985000e-002 -9.999952e-001 -2.944049e-003 -9.813496e-004
0.000000e+000 1.500000e-004 -1.500000e-004 -9.988804e-001 -4.638764e-002 9.277527e-003
0.000000e+000 2.200000e-003 -5.000000e-003 -9.839962e-001 1.781861e-001 1.134944e-003
7.500000e-005 7.500000e-005 -4.992500e-002 -6.992985e-001 -6.576926e-001 -2.800394e-001
0.000000e+000 1.985000e-002 -4.985000e-002 -9.999875e-001 9.832719e-004 -4.916359e-003
0.000000e+000 1.985000e-002 -3.506210e-002 -9.989911e-001 4.037373e-002 1.966925e-002
7.500000e-005 1.992500e-002 -4.992500e-002 -6.301439e-001 5.490531e-001 -5.490531e-001
1.500000e-004 2.000000e-002 -3.500000e-002 -1.411265e-002 9.275858e-001 3.733436e-001
1.500000e-004 1.000000e-002 -2.500000e-002 -1.795315e-002 8.134156e-001 5.814058e-001
1.500000e-004 2.000000e-002 -4.985000e-002 -2.944037e-003 9.999913e-001 -2.944037e-003
1.485000e-002 2.000000e-002 -3.500000e-002 6.384936e-003 9.283697e-001 3.716033e-001
1.485000e-002 2.000000e-002 -4.985000e-002 4.955046e-003 9.999283e-001 -1.090110e-002
1.485000e-002 1.000000e-002 -2.500000e-002 3.121651e-002 8.727050e-001 4.872490e-001
1.500000e-002 1.985000e-002 -3.506210e-002 9.989911e-001 4.037373e-002 1.966925e-002
1.492500e-002 1.992500e-002 -4.992500e-002 6.301439e-001 5.490531e-001 -5.490531e-001
1.500000e-004 1.985000e-002 -5.000000e-002 -2.949827e-003 2.949827e-003 -9.999913e-001
1.485000e-002 1.985000e-002 -5.000000e-002 1.087962e-002 2.967170e-003 -9.999365e-001
1.500000e-002 1.985000e-002 -4.985000e-002 9.999952e-001 9.813496e-004 -2.944049e-003
1.500000e-002 1.500000e-004 -4.985000e-002 9.999913e-001 -2.949827e-003 -2.949827e-003
1.492500e-002 7.500000e-005 -4.992500e-002 6.992985e-001 -6.576926e-001 -2.800394e-001
1.500000e-002 9.850000e-003 -2.506210e-002 9.999758e-001 6.882823e-003 9.832603e-004
1.500000e-002 1.500000e-004 -1.500000e-004 9.989235e-001 -4.610416e-002 5.122684e-003
1.500000e-002 2.477290e-003 -6.214870e-003 9.999719e-001 6.896358e-003 2.955582e-003
1.500000e-002 3.254230e-003 -7.189130e-003 9.999952e-001 9.794272e-004 2.938282e-003
1.500000e-002 2.200000e-003 -5.000000e-003 9.839962e-001 1.781861e-001 1.134944e-003
1.470000e-002 2.572650e-003 -5.598290e-003 4.990874e-002 9.482660e-001 3.135293e-001
1.470000e-002 3.128720e-003 -6.657810e-003 4.992857e-002 6.947204e-001 7.175449e-001
1.500000e-002 4.376940e-003 -7.729800e-003 9.996163e-001 5.043473e-003 2.723475e-002
1.470000e-002 4.113490e-003 -7.337540e-003 4.912092e-002 2.808709e-001 9.584877e-001
8.250000e-003 4.113490e-003 -7.337540e-003 -3.764405e-001 3.984914e-001 8.363594e-001
8.250000e-003 3.128720e-003 -6.657810e-003 -4.177791e-001 7.282236e-001 5.432780e-001
1.470000e-002 2.572650e-003 -4.401710e-003 5.026511e-002 9.854299e-001 -1.624849e-001
8.250000e-003 2.572650e-003 -5.598290e-003 -8.161715e-001 5.705978e-001 9.100673e-002
8.250000e-003 1.500000e-004 -1.004710e-002 -9.110290e-001 -3.041171e-002 -4.112192e-001
8.250000e-003 5.301340e-003 -7.481770e-003 -8.299623e-001 -2.064583e-002 5.574374e-001
1.470000e-002 5.301340e-003 -7.481770e-003 4.903903e-002 -1.949600e-001 9.795845e-001
8.250000e-003 6.420160e-003 -7.057460e-003 -4.130374e-001 -4.551510e-001 7.888204e-001
8.250000e-003 9.850000e-003 -1.004710e-002 -9.703214e-001 3.521817e-002 -2.392407e-001
1.500000e-002 5.623060e-003 -7.729800e-003 9.997082e-001 -7.033123e-003 2.310883e-002
1.470000e-002 6.420160e-003 -7.057460e-003 4.683104e-002 -6.286712e-001 7.762599e-001
8.250000e-003 7.213640e-003 -6.161810e-003 -3.912982e-001 -7.777255e-001 4.919641e-001
1.500000e-002 6.745770e-003 -7.189130e-003 9.996240e-001 -1.725239e-002 2.131178e-002
1.470000e-002 7.213640e-003 -6.161810e-003 4.643580e-002 -9.167754e-001 3.966944e-001
1.500000e-002 7.522710e-003 -6.214870e-003 9.991558e-001 -3.807288e-002 1.543495e-002
1.470000e-002 7.500000e-003 -5.000000e-003 6.088651e-002 -9.952176e-001 -7.638489e-002
8.250000e-003 7.500000e-003 -5.000000e-003 -8.145635e-001 -5.782135e-001 4.642590e-002
8.250000e-003 9.850000e-003 -1.500000e-004 -9.998553e-001 1.298513e-002 1.098742e-002
8.250000e-003 7.213640e-003 -3.838190e-003 -3.850946e-001 -8.497027e-001 -3.601492e-001
1.500000e-002 7.800000e-003 -5.000000e-003 9.999405e-001 -1.085819e-002 9.871081e-004
1.500000e-002 7.522710e-003 -3.785130e-003 9.940567e-001 -1.008463e-001 -4.100345e-002
1.470000e-002 7.213640e-003 -3.838190e-003 4.592970e-002 -8.448281e-001 -5.330629e-001
1.500000e-002 9.850000e-003 -1.500000e-004 9.996255e-001 2.126863e-002 1.721746e-002
1.500000e-002 6.745770e-003 -2.810870e-003 9.950837e-001 -6.545144e-002 -7.432621e-002
1.470000e-002 6.420160e-003 -2.942540e-003 4.831955e-002 -4.983816e-001 -8.656102e-001
8.250000e-003 6.420160e-003 -2.942540e-003 -4.015070e-001 -5.799546e-001 -7.088334e-001
8.250000e-003 5.301340e-003 -2.518230e-003 -8.097313e-001 -1.190349e-001 -5.746006e-001
1.500000e-002 5.623060e-003 -2.270200e-003 9.993194e-001 -9.186797e-003 -3.572643e-002
1.470000e-002 5.301340e-003 -2.518230e-003 4.782725e-002 -4.145028e-002 -9.979952e-001
1.500000e-002 4.376940e-003 -2.270200e-003 9.917459e-001 2.342707e-002 -1.260599e-001
1.470000e-002 4.113490e-003 -2.662460e-003 4.979586e-002 4.266294e-001 -9.030547e-001
8.250000e-003 4.113490e-003 -2.662460e-003 -3.599708e-001 2.592382e-001 -8.962235e-001
8.250000e-003 1.500000e-004 -1.500000e-004 -9.996693e-001 -1.109623e-002 2.320120e-002
8.250000e-003 3.128720e-003 -3.342190e-003 -4.095229e-001 6.316932e-001 -6.582209e-001
1.500000e-002 3.254230e-003 -2.810870e-003 9.950250e-001 6.101045e-002 -7.875895e-002
1.470000e-002 3.128720e-003 -3.342190e-003 4.955604e-002 7.971442e-001 -6.017519e-001
1.500000e-002 2.477290e-003 -3.785130e-003 9.941467e-001 9.685416e-002 -4.787045e-002
8.250000e-003 2.572650e-003 -4.401710e-003 -3.292853e-001 8.954772e-001 -2.994857e-001
1.492500e-002 7.500000e-005 -7.500000e-005 7.075920e-001 -6.535288e-001 2.687260e-001
1.492500e-002 9.925000e-003 -7.500000e-005 7.075920e-001 6.535288e-001 2.687260e-001
1.485000e-002 1.000000e-002 -1.500000e-004 1.288292e-002 9.999126e-001 2.972981e-003
1.322730e-002 1.000000e-002 -1.824060e-002 -4.904091e-002 9.985564e-001 2.191189e-002
1.363340e-002 1.000000e-002 -1.645120e-002 -1.897752e-002 9.998154e-001 2.996450e-003
1.231140e-002 1.000000e-002 -1.983050e-002 -3.202898e-002 9.990976e-001 2.789621e-002
1.096720e-002 1.000000e-002 -2.107950e-002 -2.160966e-002 9.991896e-001 3.395804e-002
9.314350e-003 1.000000e-002 -2.187630e-002 -1.134002e-002 9.989526e-001 4.432917e-002
7.500000e-003 1.000000e-002 -2.215000e-002 9.851825e-004 9.999602e-001 8.866642e-003
1.090390e-002 9.850000e-003 -2.094100e-002 -6.080992e-001 1.523711e-002 7.937148e-001
1.221810e-002 9.850000e-003 -1.970670e-002 -8.166069e-001 1.514785e-002 5.769954e-001
9.282440e-003 9.850000e-003 -2.172910e-002 -2.976236e-001 1.111458e-002 9.546186e-001
7.500000e-003 9.850000e-003 -2.200000e-002 4.904304e-002 1.982591e-002 9.985999e-001
5.685650e-003 1.000000e-002 -2.187630e-002 1.134002e-002 9.989526e-001 4.432917e-002
5.717560e-003 9.850000e-003 -2.172910e-002 2.974121e-001 2.364364e-002 9.544564e-001
5.717560e-003 1.500000e-004 -2.172910e-002 2.976236e-001 -1.111458e-002 9.546186e-001
7.500000e-003 1.500000e-004 -2.200000e-002 -4.904304e-002 -1.982591e-002 9.985999e-001
9.282440e-003 1.500000e-004 -2.172910e-002 -2.974121e-001 -2.364364e-002 9.544564e-001
1.090390e-002 1.500000e-004 -2.094100e-002 -5.263894e-001 -1.496197e-002 8.501120e-001
9.314350e-003 0.000000e+000 -2.187630e-002 -9.851977e-004 -9.999757e-001 6.896384e-003
7.500000e-003 0.000000e+000 -2.215000e-002 9.775162e-004 -9.999990e-001 9.775162e-004
5.685650e-003 0.000000e+000 -2.187630e-002 9.851977e-004 -9.999757e-001 6.896384e-003
1.096720e-002 0.000000e+000 -2.107950e-002 -4.935656e-003 -9.999640e-001 6.909919e-003
1.231140e-002 0.000000e+000 -1.983050e-002 -8.919153e-003 -9.999362e-001 6.937119e-003
1.221810e-002 1.500000e-004 -1.970670e-002 -7.553251e-001 -1.530125e-002 6.551716e-001
1.485000e-002 0.000000e+000 -4.985000e-002 4.916359e-003 -9.999875e-001 -9.832719e-004
1.500000e-004 0.000000e+000 -4.985000e-002 -4.926027e-003 -9.999835e-001 -2.955616e-003
4.032810e-003 0.000000e+000 -2.107950e-002 4.935656e-003 -9.999640e-001 6.909919e-003
4.096050e-003 1.500000e-004 -2.094100e-002 6.080992e-001 -1.523711e-002 7.937148e-001
4.096050e-003 9.850000e-003 -2.094100e-002 5.263894e-001 1.496197e-002 8.501120e-001
2.688600e-003 0.000000e+000 -1.983050e-002 8.919153e-003 -9.999362e-001 6.937119e-003
2.781900e-003 1.500000e-004 -1.970670e-002 8.166069e-001 -1.514785e-002 5.769954e-001
2.781900e-003 9.850000e-003 -1.970670e-002 7.553251e-001 1.530125e-002 6.551716e-001
2.688600e-003 1.000000e-002 -1.983050e-002 3.202898e-002 9.990976e-001 2.789621e-002
4.032810e-003 1.000000e-002 -2.107950e-002 2.160966e-002 9.991896e-001 3.395804e-002
1.772680e-003 1.000000e-002 -1.824060e-002 4.904091e-002 9.985564e-001 2.191189e-002
1.893740e-003 9.850000e-003 -1.813770e-002 9.153374e-001 1.692658e-002 4.023318e-001
1.366570e-003 1.000000e-002 -1.645120e-002 1.897752e-002 9.998154e-001 2.996450e-003
7.500000e-005 9.925000e-003 -7.500000e-005 -7.075920e-001 6.535288e-001 2.687260e-001
1.500000e-004 1.000000e-002 -1.500000e-004 -1.293393e-002 9.998921e-001 6.964423e-003
1.511780e-003 9.850000e-003 -1.637570e-002 9.937227e-001 1.643422e-002 1.106571e-001
1.506440e-003 1.000000e-002 -1.462170e-002 4.629230e-002 9.988850e-001 -9.258460e-003
1.893740e-003 1.500000e-004 -1.813770e-002 9.512658e-001 -1.620767e-002 3.079458e-001
1.511780e-003 1.500000e-004 -1.637570e-002 9.998553e-001 -1.098742e-002 1.298513e-002
1.670500e-003 9.850000e-003 -1.457980e-002 9.818702e-001 1.507003e-002 -1.889549e-001
2.179830e-003 1.000000e-002 -1.291480e-002 2.324752e-002 9.996434e-001 -1.313990e-002
2.355570e-003 9.850000e-003 -1.291220e-002 8.814044e-001 1.471237e-002 -4.721332e-001
1.670500e-003 1.500000e-004 -1.457980e-002 9.588121e-001 -1.595974e-002 -2.835923e-001
1.366570e-003 0.000000e+000 -1.645120e-002 1.288297e-002 -9.999166e-001 9.909975e-004
1.772680e-003 0.000000e+000 -1.824060e-002 1.498297e-002 -9.998633e-001 6.992051e-003
1.506440e-003 0.000000e+000 -1.462170e-002 4.432804e-002 -9.989272e-001 -1.340150e-002
1.500000e-004 0.000000e+000 -1.500000e-004 -4.184259e-002 -9.991195e-001 3.061653e-003
2.355570e-003 1.500000e-004 -1.291220e-002 8.308159e-001 -2.059874e-002 -5.561660e-001
2.179830e-003 0.000000e+000 -1.291480e-002 1.501271e-002 -9.998468e-001 -9.007628e-003
3.326800e-003 0.000000e+000 -1.148260e-002 4.935714e-003 -9.999757e-001 -4.935714e-003
3.505130e-003 1.500000e-004 -1.152330e-002 6.264837e-001 -1.528009e-002 -7.792847e-001
3.505130e-003 9.850000e-003 -1.152330e-002 7.014236e-001 1.533928e-002 -7.125795e-001
4.845240e-003 0.000000e+000 -1.045250e-002 1.111865e-002 -9.996679e-001 -2.324809e-002
6.600000e-003 0.000000e+000 -1.500000e-004 6.950895e-003 -9.999359e-001 8.936865e-003
5.015400e-003 9.850000e-003 -1.053860e-002 4.593736e-001 1.464670e-002 -8.881224e-001
4.845240e-003 1.000000e-002 -1.045250e-002 2.961417e-003 9.999717e-001 -6.909973e-003
3.326800e-003 1.000000e-002 -1.148260e-002 1.507195e-002 9.997728e-001 -1.507195e-002
6.600000e-003 1.000000e-002 -9.916210e-003 1.189310e-001 9.925733e-001 -2.556460e-002
6.600000e-003 1.000000e-002 -1.500000e-004 8.919258e-003 9.999479e-001 4.955143e-003
7.500000e-005 7.500000e-005 -7.500000e-005 -7.075920e-001 -6.535288e-001 2.687260e-001
1.485000e-002 1.500000e-004 -5.000000e-002 2.949827e-003 -2.949827e-003 -9.999913e-001
1.500000e-004 1.500000e-004 -5.000000e-002 -1.087962e-002 -2.967170e-003 -9.999365e-001
1.485000e-002 0.000000e+000 -1.500000e-004 4.192775e-002 -9.991076e-001 5.113140e-003
1.322730e-002 0.000000e+000 -1.824060e-002 -1.498297e-002 -9.998633e-001 6.992051e-003
1.363340e-002 0.000000e+000 -1.645120e-002 -1.085819e-002 -9.999405e-001 9.871081e-004
1.310630e-002 1.500000e-004 -1.813770e-002 -9.153374e-001 -1.692658e-002 4.023318e-001
1.348820e-002 1.500000e-004 -1.637570e-002 -9.937227e-001 -1.643422e-002 1.106571e-001
1.349360e-002 0.000000e+000 -1.462170e-002 -4.629230e-002 -9.988850e-001 -9.258460e-003
1.310630e-002 9.850000e-003 -1.813770e-002 -9.512658e-001 1.620767e-002 3.079458e-001
1.348820e-002 9.850000e-003 -1.637570e-002 -9.998019e-001 1.504215e-002 1.303653e-002
1.332950e-002 1.500000e-004 -1.457980e-002 -9.818702e-001 -1.507003e-002 -1.889549e-001
1.282020e-002 0.000000e+000 -1.291480e-002 -2.324752e-002 -9.996434e-001 -1.313990e-002
1.264440e-002 1.500000e-004 -1.291220e-002 -8.814044e-001 -1.471237e-002 -4.721332e-001
1.332950e-002 9.850000e-003 -1.457980e-002 -9.579405e-001 1.598617e-002 -2.865213e-001
1.349360e-002 1.000000e-002 -1.462170e-002 -4.629230e-002 9.988850e-001 -9.258460e-003
1.282020e-002 1.000000e-002 -1.291480e-002 -2.324752e-002 9.996434e-001 -1.313990e-002
1.264440e-002 9.850000e-003 -1.291220e-002 -8.296278e-001 1.508414e-002 -5.581132e-001
1.167320e-002 0.000000e+000 -1.148260e-002 -4.935714e-003 -9.999757e-001 -4.935714e-003
1.149490e-002 1.500000e-004 -1.152330e-002 -7.014236e-001 -1.533928e-002 -7.125795e-001
1.015480e-002 0.000000e+000 -1.045250e-002 -1.111865e-002 -9.996679e-001 -2.324809e-002
8.400000e-003 0.000000e+000 -1.500000e-004 -6.909919e-003 -9.999640e-001 4.935656e-003
9.984600e-003 1.500000e-004 -1.053860e-002 -4.593736e-001 -1.464670e-002 -8.881224e-001
1.149490e-002 9.850000e-003 -1.152330e-002 -6.264837e-001 1.528009e-002 -7.792847e-001
1.167320e-002 1.000000e-002 -1.148260e-002 -1.507195e-002 9.997728e-001 -1.507195e-002
1.015480e-002 1.000000e-002 -1.045250e-002 -2.961417e-003 9.999717e-001 -6.909973e-003
9.984600e-003 9.850000e-003 -1.053860e-002 -3.680204e-001 1.666991e-002 -9.296682e-001
8.400000e-003 0.000000e+000 -9.916210e-003 -1.189310e-001 -9.925733e-001 -2.556460e-002
8.325001e-003 7.500000e-005 -7.500000e-005 -6.691288e-001 -5.718620e-001 4.745951e-001
8.400000e-003 1.000000e-002 -9.916210e-003 -1.189310e-001 9.925733e-001 -2.556460e-002
8.325001e-003 9.925000e-003 -7.500000e-005 -6.691288e-001 5.718620e-001 4.745951e-001
8.400000e-003 1.000000e-002 -1.500000e-004 -8.972180e-003 9.998996e-001 1.096600e-002
1.485000e-002 1.500000e-004 0.000000e+000 2.315535e-002 -7.047280e-003 9.997070e-001
1.485000e-002 9.850000e-003 0.000000e+000 4.945419e-003 6.923587e-003 9.999638e-001
8.400000e-003 1.500000e-004 0.000000e+000 -4.945419e-003 -6.923587e-003 9.999638e-001
8.400000e-003 9.850000e-003 0.000000e+000 -2.315535e-002 7.047280e-003 9.997070e-001
0.000000e+000 9.850000e-003 -1.500000e-004 -9.997365e-001 2.109997e-002 9.042842e-003
0.000000e+000 2.477290e-003 -3.785130e-003 -9.941467e-001 9.685416e-002 -4.787045e-002
0.000000e+000 3.254230e-003 -2.810870e-003 -9.950250e-001 6.101045e-002 -7.875895e-002
0.000000e+000 4.376940e-003 -2.270200e-003 -9.992641e-001 7.130325e-003 -3.768886e-002
3.000000e-004 2.572650e-003 -4.401710e-003 -4.990874e-002 9.482660e-001 -3.135293e-001
3.000000e-004 3.128720e-003 -3.342190e-003 -4.992857e-002 6.947204e-001 -7.175449e-001
6.750000e-003 3.128720e-003 -3.342190e-003 4.098306e-001 7.291363e-001 -5.480867e-001
3.000000e-004 4.113490e-003 -2.662460e-003 -4.912092e-002 2.808709e-001 -9.584877e-001
6.750000e-003 4.113490e-003 -2.662460e-003 3.617425e-001 4.024581e-001 -8.409339e-001
3.000000e-004 5.301340e-003 -2.518230e-003 -4.903903e-002 -1.949600e-001 -9.795845e-001
6.750000e-003 5.301340e-003 -2.518230e-003 8.101258e-001 -2.354212e-002 -5.857832e-001
6.750000e-003 9.850000e-003 -1.500000e-004 9.996679e-001 1.111865e-002 2.324809e-002
6.750000e-003 6.420160e-003 -2.942540e-003 4.012274e-001 -4.560135e-001 -7.943980e-001
0.000000e+000 5.623060e-003 -2.270200e-003 -9.915898e-001 -3.481233e-002 -1.246506e-001
3.000000e-004 6.420160e-003 -2.942540e-003 -4.683104e-002 -6.286712e-001 -7.762599e-001
6.750000e-003 7.213640e-003 -3.838190e-003 3.841843e-001 -7.797158e-001 -4.944144e-001
0.000000e+000 6.745770e-003 -2.810870e-003 -9.950837e-001 -6.545144e-002 -7.432621e-002
3.000000e-004 7.213640e-003 -3.838190e-003 -4.643580e-002 -9.167754e-001 -3.966944e-001
0.000000e+000 7.522710e-003 -3.785130e-003 -9.940567e-001 -1.008463e-001 -4.100345e-002
3.000000e-004 7.500000e-003 -5.000000e-003 -6.088651e-002 -9.952176e-001 7.638489e-002
6.750000e-003 7.500000e-003 -5.000000e-003 8.145635e-001 -5.782135e-001 -4.642590e-002
6.750000e-003 7.213640e-003 -6.161810e-003 3.914185e-001 -8.467739e-001 3.602298e-001
6.675000e-003 9.925000e-003 -7.500000e-005 6.691288e-001 5.718620e-001 4.745951e-001
6.750000e-003 6.420160e-003 -7.057460e-003 4.124716e-001 -5.781229e-001 7.040178e-001
3.000000e-004 7.213640e-003 -6.161810e-003 -4.592970e-002 -8.448281e-001 5.330629e-001
3.000000e-004 6.420160e-003 -7.057460e-003 -4.831955e-002 -4.983816e-001 8.656102e-001
0.000000e+000 6.745770e-003 -7.189130e-003 -9.996240e-001 -1.725239e-002 2.131178e-002
0.000000e+000 5.623060e-003 -7.729800e-003 -9.997082e-001 -7.033123e-003 2.310883e-002
0.000000e+000 7.522710e-003 -6.214870e-003 -9.991558e-001 -3.807288e-002 1.543495e-002
0.000000e+000 7.800000e-003 -5.000000e-003 -9.999405e-001 -1.085819e-002 9.871081e-004
6.600000e-003 9.850000e-003 0.000000e+000 4.945419e-003 6.923587e-003 9.999638e-001
1.500000e-004 9.850000e-003 0.000000e+000 -2.315535e-002 7.047280e-003 9.997070e-001
6.600000e-003 1.500000e-004 0.000000e+000 2.315535e-002 -7.047280e-003 9.997070e-001
1.500000e-004 1.500000e-004 0.000000e+000 -4.945419e-003 -6.923587e-003 9.999638e-001
3 0 1 2
3 3 0 2
3 0 3 4
3 0 5 6
3 1 0 6
3 7 5 0
3 8 7 0
3 9 8 0
3 0 4 9
3 5 10 6
3 11 10 5
3 7 11 5
3 12 1 6
3 13 6 10
3 6 13 12
3 10 14 13
3 15 14 10
3 11 15 10
3 16 17 11
3 15 11 17
3 11 7 16
3 15 17 18
3 19 15 18
3 15 19 14
3 14 20 21
3 19 20 14
3 21 13 14
3 20 19 22
3 19 23 22
3 19 18 23
3 23 24 25
3 23 25 22
3 18 24 23
3 24 26 25
3 24 18 27
3 26 24 27
3 28 26 29
3 28 25 26
3 26 27 29
3 28 30 25
3 30 28 29
3 27 31 29
3 32 29 31
3 29 32 33
3 30 29 33
3 30 33 25
3 34 25 33
3 35 34 33
3 32 36 33
3 37 38 33
3 36 37 33
3 35 33 38
3 39 32 31
3 39 36 32
3 39 37 36
3 37 40 38
3 41 37 42
3 40 37 41
3 39 42 37
3 43 40 41
3 44 41 45
3 43 41 44
3 42 45 41
3 46 42 39
3 42 46 47
3 45 42 47
3 45 47 48
3 45 49 44
3 49 45 48
3 50 43 44
3 51 44 49
3 50 44 51
3 49 48 52
3 49 52 51
3 48 53 52
3 48 47 53
3 47 46 54
3 54 53 47
3 53 55 56
3 52 53 56
3 53 54 55
3 57 54 46
3 54 57 58
3 54 58 55
3 55 59 56
3 55 58 59
3 58 60 61
3 57 60 58
3 61 59 58
3 57 46 39
3 60 57 39
3 62 60 39
3 62 61 60
3 61 62 63
3 61 63 64
3 59 61 64
3 56 59 64
3 65 56 64
3 66 65 64
3 64 63 66
3 63 67 68
3 62 67 63
3 63 68 69
3 63 69 66
3 62 39 67
3 67 70 68
3 39 70 67
3 71 68 70
3 68 71 69
3 69 71 72
3 66 69 73
3 72 73 69
3 66 73 65
3 73 74 65
3 73 72 74
3 75 72 71
3 72 75 76
3 72 76 74
3 75 71 70
3 40 75 70
3 77 75 40
3 75 77 76
3 76 77 78
3 74 76 79
3 78 79 76
3 74 79 80
3 65 74 80
3 79 81 80
3 79 78 81
3 82 78 77
3 78 82 83
3 78 83 81
3 82 77 40
3 84 82 40
3 82 84 83
3 83 84 50
3 81 83 85
3 50 85 83
3 81 85 80
3 51 80 85
3 85 50 51
3 43 50 84
3 43 84 40
3 40 86 38
3 40 70 86
3 70 87 86
3 70 39 87
3 39 31 87
3 88 87 31
3 89 90 31
3 91 89 31
3 92 91 31
3 93 92 31
3 94 93 31
3 27 94 31
3 31 90 88
3 91 92 95
3 91 96 89
3 96 91 95
3 95 92 97
3 93 97 92
3 93 94 98
3 97 93 98
3 94 99 98
3 99 94 27
3 98 100 101
3 98 102 97
3 102 98 101
3 98 99 100
3 97 103 104
3 95 97 104
3 102 103 97
3 102 105 103
3 106 105 102
3 107 106 102
3 101 107 102
3 108 103 105
3 103 108 104
3 104 109 110
3 108 109 104
3 110 95 104
3 108 105 111
3 109 108 111
3 105 106 111
3 106 107 112
3 111 106 112
3 107 101 113
3 107 113 112
3 114 113 101
3 100 115 101
3 101 115 114
3 116 113 114
3 113 116 112
3 117 116 114
3 114 118 117
3 115 118 114
3 115 119 118
3 120 119 115
3 100 120 115
3 120 100 99
3 120 99 27
3 119 120 27
3 121 118 119
3 121 119 27
3 122 117 118
3 118 121 122
3 121 123 122
3 123 121 27
3 27 18 124
3 125 27 124
3 125 123 27
3 122 123 126
3 127 126 123
3 127 123 125
3 122 126 128
3 117 122 128
3 128 126 129
3 130 129 126
3 126 127 130
3 127 131 130
3 131 127 125
3 130 132 133
3 129 130 133
3 130 131 132
3 129 133 134
3 129 134 128
3 128 135 117
3 134 135 128
3 116 117 135
3 135 134 112
3 116 135 112
3 134 133 136
3 134 136 137
3 112 134 137
3 138 136 133
3 133 132 138
3 139 136 138
3 136 139 137
3 140 139 138
3 141 140 138
3 142 138 132
3 138 142 141
3 139 140 137
3 140 141 143
3 137 140 144
3 143 144 140
3 4 143 141
3 141 145 4
3 142 145 141
3 142 146 145
3 147 146 142
3 132 147 142
3 147 132 131
3 147 131 125
3 146 147 125
3 148 145 146
3 149 148 146
3 149 146 125
3 9 4 145
3 9 145 148
3 3 143 4
3 144 3 2
3 3 144 143
3 2 150 144
3 137 144 150
3 137 150 22
3 112 137 22
3 151 38 22
3 152 151 22
3 112 22 38
3 150 20 22
3 22 25 152
3 111 112 38
3 86 153 38
3 111 38 153
3 151 35 38
3 154 109 111
3 155 154 111
3 153 155 111
3 154 155 156
3 154 110 109
3 110 154 156
3 156 155 157
3 158 157 155
3 158 155 153
3 156 96 110
3 159 96 156
3 157 159 156
3 95 110 96
3 159 89 96
3 159 157 160
3 90 89 159
3 160 90 159
3 157 158 161
3 161 160 157
3 158 162 161
3 162 158 153
3 161 162 163
3 164 160 161
3 163 164 161
3 164 165 160
3 90 160 165
3 90 165 88
3 166 165 164
3 165 166 88
3 164 163 167
3 167 166 164
3 168 163 162
3 163 168 169
3 169 167 163
3 168 162 153
3 168 170 169
3 170 168 171
3 171 168 153
3 169 170 172
3 173 167 169
3 172 173 169
3 173 174 167
3 166 167 174
3 166 174 88
3 175 174 173
3 174 175 88
3 173 172 176
3 176 175 173
3 177 172 170
3 52 172 177
3 52 176 172
3 177 170 171
3 177 171 178
3 171 153 178
3 52 177 178
3 80 52 178
3 56 176 52
3 52 80 51
3 179 175 176
3 56 179 176
3 179 56 180
3 65 180 56
3 181 179 180
3 179 181 175
3 181 180 87
3 88 181 87
3 175 181 88
3 87 182 86
3 183 182 87
3 183 87 180
3 182 184 86
3 184 182 183
3 184 178 86
3 153 86 178
3 184 185 178
3 185 184 183
3 185 183 180
3 185 180 178
3 178 180 80
3 65 80 180
3 34 35 151
3 34 152 25
3 152 34 151
3 20 150 124
3 186 20 124
3 187 21 20
3 188 187 20
3 189 188 20
3 186 189 20
3 190 187 191
3 21 187 190
3 188 191 187
3 13 21 190
3 12 190 192
3 13 190 12
3 191 192 190
3 191 188 193
3 191 193 194
3 192 191 194
3 188 189 193
3 193 189 195
3 194 193 196
3 195 196 193
3 194 196 1
3 192 194 1
3 12 192 1
3 1 197 2
3 1 196 197
3 196 198 197
3 196 195 198
3 199 195 189
3 195 199 200
3 195 200 198
3 198 201 197
3 198 200 201
3 200 202 203
3 199 202 200
3 203 201 200
3 199 189 186
3 202 199 186
3 204 202 186
3 204 203 202
3 203 204 205
3 203 205 206
3 201 203 206
3 206 197 201
3 9 197 206
3 207 9 206
3 206 205 207
3 197 208 2
3 197 9 208
3 209 8 9
3 207 209 9
3 9 148 208
3 207 210 209
3 205 210 207
3 211 209 210
3 209 211 8
3 8 16 7
3 211 16 8
3 210 212 211
3 213 211 212
3 211 213 16
3 214 212 210
3 205 214 210
3 212 214 18
3 213 212 18
3 17 213 18
3 213 17 16
3 18 186 124
3 18 214 215
3 186 18 215
3 205 215 214
3 204 215 205
3 204 186 215
3 124 216 208
3 125 124 208
3 217 216 124
3 217 124 150
3 216 218 208
3 216 217 219
3 218 216 219
3 218 2 208
3 149 125 208
3 148 149 208
3 218 219 2
3 219 150 2
3 219 217 150
