ply
format ascii 1.0
comment Written by HALCON (export v1.0)
element vertex 466
property float x
property float y
property float z
element face 940
property list uchar int vertex_index
end_header
5.007873e-003 -1.866688e-002 0.000000e+000
1.367024e-002 -1.365195e-002 0.000000e+000
1.213780e-002 -2.099372e-002 0.000000e+000
1.865114e-002 -4.990267e-003 0.000000e+000
2.100996e-002 -1.210968e-002 0.000000e+000
8.037400e-004 -1.526649e-002 0.000000e+000
1.093453e-003 -1.502682e-002 0.000000e+000
1.314460e-003 -1.472263e-002 0.000000e+000
4.635260e-004 -1.542659e-002 0.000000e+000
1.452875e-003 -1.437303e-002 0.000000e+000
9.418600e-005 -1.549704e-002 0.000000e+000
0.000000e+000 -2.425000e-002 0.000000e+000
1.500000e-003 -1.400000e-002 0.000000e+000
-2.810720e-004 -1.547343e-002 0.000000e+000
1.452875e-003 -1.362697e-002 0.000000e+000
1.314460e-003 -1.327737e-002 0.000000e+000
1.863967e-002 4.977365e-003 0.000000e+000
2.425000e-002 0.000000e+000 0.000000e+000
-5.007873e-003 -1.866688e-002 0.000000e+000
-6.386690e-004 -1.535724e-002 0.000000e+000
-9.561360e-004 -1.515577e-002 0.000000e+000
-1.213526e-003 -1.488168e-002 0.000000e+000
-1.394665e-003 -1.455219e-002 0.000000e+000
-1.488172e-003 -1.418800e-002 0.000000e+000
-1.488172e-003 -1.381200e-002 0.000000e+000
4.143256e-003 -5.008336e-003 0.000000e+000
4.738296e-003 -4.449556e-003 0.000000e+000
5.258610e-003 -3.820604e-003 0.000000e+000
3.482874e-003 -5.488132e-003 0.000000e+000
5.695993e-003 -3.131399e-003 0.000000e+000
2.767565e-003 -5.881376e-003 0.000000e+000
1.093453e-003 -1.297318e-002 0.000000e+000
6.043547e-003 -2.392810e-003 0.000000e+000
2.008610e-003 -6.181867e-003 0.000000e+000
8.037400e-004 -1.273351e-002 0.000000e+000
6.295791e-003 -1.616484e-003 0.000000e+000
1.217979e-003 -6.384867e-003 0.000000e+000
4.635260e-004 -1.257341e-002 0.000000e+000
6.448746e-003 -8.146660e-004 0.000000e+000
4.081380e-004 -6.487174e-003 0.000000e+000
9.418600e-005 -1.250296e-002 0.000000e+000
6.500000e-003 0.000000e+000 0.000000e+000
-4.081380e-004 -6.487174e-003 0.000000e+000
-2.810720e-004 -1.252657e-002 0.000000e+000
6.448746e-003 8.146660e-004 0.000000e+000
-1.217979e-003 -6.384867e-003 0.000000e+000
-6.386690e-004 -1.264276e-002 0.000000e+000
6.295791e-003 1.616484e-003 0.000000e+000
-2.008610e-003 -6.181867e-003 0.000000e+000
-9.561360e-004 -1.284423e-002 0.000000e+000
6.043547e-003 2.392810e-003 0.000000e+000
-2.767565e-003 -5.881376e-003 0.000000e+000
-1.213526e-003 -1.311832e-002 0.000000e+000
5.695993e-003 3.131399e-003 0.000000e+000
-3.482874e-003 -5.488132e-003 0.000000e+000
-1.394665e-003 -1.344781e-002 0.000000e+000
1.367407e-002 1.359228e-002 0.000000e+000
2.102187e-002 1.208898e-002 0.000000e+000
5.258610e-003 3.820604e-003 0.000000e+000
4.738296e-003 4.449556e-003 0.000000e+000
-1.367024e-002 -1.365195e-002 0.000000e+000
-1.213780e-002 -2.099372e-002 0.000000e+000
-4.143256e-003 -5.008336e-003 0.000000e+000
-4.738296e-003 -4.449556e-003 0.000000e+000
4.143256e-003 5.008336e-003 0.000000e+000
-5.258610e-003 -3.820604e-003 0.000000e+000
3.482874e-003 5.488132e-003 0.000000e+000
-5.695993e-003 -3.131399e-003 0.000000e+000
1.093453e-003 1.297318e-002 0.000000e+000
2.767565e-003 5.881376e-003 0.000000e+000
2.008610e-003 6.181867e-003 0.000000e+000
8.037400e-004 1.273351e-002 0.000000e+000
1.217979e-003 6.384867e-003 0.000000e+000
1.314460e-003 1.327737e-002 0.000000e+000
4.635260e-004 1.257341e-002 0.000000e+000
4.081380e-004 6.487174e-003 0.000000e+000
1.452875e-003 1.362697e-002 0.000000e+000
9.418600e-005 1.250296e-002 0.000000e+000
-4.081380e-004 6.487174e-003 0.000000e+000
-2.810720e-004 1.252657e-002 0.000000e+000
-1.217979e-003 6.384867e-003 0.000000e+000
-6.386690e-004 1.264276e-002 0.000000e+000
-2.008610e-003 6.181867e-003 0.000000e+000
5.096512e-003 1.858702e-002 0.000000e+000
1.452875e-003 1.437303e-002 0.000000e+000
1.314460e-003 1.472263e-002 0.000000e+000
1.500000e-003 1.400000e-002 0.000000e+000
1.221488e-002 2.094897e-002 0.000000e+000
-1.865114e-002 -4.990267e-003 0.000000e+000
-2.100996e-002 -1.210968e-002 0.000000e+000
-6.043547e-003 -2.392810e-003 0.000000e+000
-6.295791e-003 -1.616484e-003 0.000000e+000
-6.448746e-003 -8.146660e-004 0.000000e+000
-6.500000e-003 0.000000e+000 0.000000e+000
-9.561360e-004 1.284423e-002 0.000000e+000
-2.767565e-003 5.881376e-003 0.000000e+000
1.093453e-003 1.502682e-002 0.000000e+000
-1.213526e-003 1.311832e-002 0.000000e+000
-3.482874e-003 5.488132e-003 0.000000e+000
8.037400e-004 1.526649e-002 0.000000e+000
-1.394665e-003 1.344781e-002 0.000000e+000
4.635260e-004 1.542659e-002 0.000000e+000
9.418600e-005 1.549704e-002 0.000000e+000
-1.863967e-002 4.977365e-003 0.000000e+000
-6.448746e-003 8.146660e-004 0.000000e+000
-6.295791e-003 1.616484e-003 0.000000e+000
-6.043547e-003 2.392810e-003 0.000000e+000
-5.695993e-003 3.131399e-003 0.000000e+000
-5.096512e-003 1.858702e-002 0.000000e+000
-1.488172e-003 1.418800e-002 0.000000e+000
-1.488172e-003 1.381200e-002 0.000000e+000
-1.394665e-003 1.455219e-002 0.000000e+000
-1.213526e-003 1.488168e-002 0.000000e+000
-9.561360e-004 1.515577e-002 0.000000e+000
-6.386690e-004 1.535724e-002 0.000000e+000
-2.810720e-004 1.547343e-002 0.000000e+000
0.000000e+000 2.425000e-002 0.000000e+000
-2.425000e-002 0.000000e+000 0.000000e+000
-1.367407e-002 1.359228e-002 0.000000e+000
-5.258610e-003 3.820604e-003 0.000000e+000
-4.738296e-003 4.449556e-003 0.000000e+000
-4.143256e-003 5.008336e-003 0.000000e+000
-2.102187e-002 1.208898e-002 0.000000e+000
-1.221488e-002 2.094897e-002 0.000000e+000
-1.234336e-002 -2.000890e-002 1.000000e-003
-1.213780e-002 -2.099372e-002 1.000000e-003
-1.367024e-002 -1.365195e-002 1.000000e-003
-5.007873e-003 -1.866688e-002 1.000000e-003
-2.100996e-002 -1.210968e-002 1.000000e-003
-6.716680e-004 -2.350118e-002 1.000000e-003
0.000000e+000 -2.425000e-002 1.000000e-003
-2.069343e-002 -1.115435e-002 1.000000e-003
-1.865114e-002 -4.990267e-003 1.000000e-003
5.007873e-003 -1.866688e-002 1.000000e-003
-2.425000e-002 0.000000e+000 1.000000e-003
1.118139e-002 -2.068160e-002 1.000000e-003
1.213780e-002 -2.099372e-002 1.000000e-003
-2.349680e-002 6.682270e-004 1.000000e-003
-1.863967e-002 4.977365e-003 1.000000e-003
1.367024e-002 -1.365195e-002 1.000000e-003
-2.102187e-002 1.208898e-002 1.000000e-003
2.002507e-002 -1.231663e-002 1.000000e-003
2.100996e-002 -1.210968e-002 1.000000e-003
-2.003490e-002 1.229091e-002 1.000000e-003
-1.367407e-002 1.359228e-002 1.000000e-003
1.865114e-002 -4.990267e-003 1.000000e-003
-1.221488e-002 2.094897e-002 1.000000e-003
2.349833e-002 -6.699590e-004 1.000000e-003
2.425000e-002 0.000000e+000 1.000000e-003
-1.125836e-002 2.063158e-002 1.000000e-003
-5.096512e-003 1.858702e-002 1.000000e-003
1.863967e-002 4.977365e-003 1.000000e-003
0.000000e+000 2.425000e-002 1.000000e-003
2.070189e-002 1.113374e-002 1.000000e-003
2.102187e-002 1.208898e-002 1.000000e-003
5.096512e-003 1.858702e-002 1.000000e-003
6.726710e-004 2.350256e-002 1.000000e-003
1.367407e-002 1.359228e-002 1.000000e-003
1.221488e-002 2.094897e-002 1.000000e-003
1.241096e-002 1.996041e-002 1.000000e-003
9.418600e-005 -1.250296e-002 1.000000e-003
4.635260e-004 -1.257341e-002 1.000000e-003
8.037400e-004 -1.273351e-002 1.000000e-003
1.452875e-003 -1.437303e-002 1.000000e-003
1.500000e-003 -1.400000e-002 1.000000e-003
1.314460e-003 -1.472263e-002 1.000000e-003
1.093453e-003 -1.297318e-002 1.000000e-003
1.314460e-003 -1.327737e-002 1.000000e-003
1.093453e-003 -1.502682e-002 1.000000e-003
1.452875e-003 -1.362697e-002 1.000000e-003
8.037400e-004 -1.526649e-002 1.000000e-003
4.635260e-004 -1.542659e-002 1.000000e-003
9.418600e-005 -1.549704e-002 1.000000e-003
-2.810720e-004 -1.547343e-002 1.000000e-003
-6.386690e-004 -1.535724e-002 1.000000e-003
-9.561360e-004 -1.515577e-002 1.000000e-003
-1.213526e-003 -1.488168e-002 1.000000e-003
-1.394665e-003 -1.455219e-002 1.000000e-003
-1.488172e-003 -1.418800e-002 1.000000e-003
-1.488172e-003 -1.381200e-002 1.000000e-003
-1.394665e-003 -1.344781e-002 1.000000e-003
-1.213526e-003 -1.311832e-002 1.000000e-003
-9.561360e-004 -1.284423e-002 1.000000e-003
-6.386690e-004 -1.264276e-002 1.000000e-003
-2.810720e-004 -1.252657e-002 1.000000e-003
6.448746e-003 -8.146660e-004 1.000000e-003
6.500000e-003 0.000000e+000 1.000000e-003
6.295791e-003 -1.616484e-003 1.000000e-003
6.043547e-003 -2.392810e-003 1.000000e-003
5.695993e-003 -3.131399e-003 1.000000e-003
5.258610e-003 -3.820604e-003 1.000000e-003
4.738296e-003 -4.449556e-003 1.000000e-003
4.143256e-003 -5.008336e-003 1.000000e-003
3.482874e-003 -5.488132e-003 1.000000e-003
2.767565e-003 -5.881376e-003 1.000000e-003
2.008610e-003 -6.181867e-003 1.000000e-003
1.217979e-003 -6.384867e-003 1.000000e-003
4.081380e-004 -6.487174e-003 1.000000e-003
-4.081380e-004 -6.487174e-003 1.000000e-003
-1.217979e-003 -6.384867e-003 1.000000e-003
-2.767565e-003 -5.881376e-003 1.000000e-003
-2.008610e-003 -6.181867e-003 1.000000e-003
-3.482874e-003 -5.488132e-003 1.000000e-003
-4.143256e-003 -5.008336e-003 1.000000e-003
-4.738296e-003 -4.449556e-003 1.000000e-003
-5.258610e-003 -3.820604e-003 1.000000e-003
-5.695993e-003 -3.131399e-003 1.000000e-003
-6.043547e-003 -2.392810e-003 1.000000e-003
-6.295791e-003 -1.616484e-003 1.000000e-003
-6.448746e-003 -8.146660e-004 1.000000e-003
-6.500000e-003 0.000000e+000 1.000000e-003
-6.448746e-003 8.146660e-004 1.000000e-003
-6.295791e-003 1.616484e-003 1.000000e-003
-6.043547e-003 2.392810e-003 1.000000e-003
-5.695993e-003 3.131399e-003 1.000000e-003
-5.258610e-003 3.820604e-003 1.000000e-003
-4.738296e-003 4.449556e-003 1.000000e-003
-4.143256e-003 5.008336e-003 1.000000e-003
-3.482874e-003 5.488132e-003 1.000000e-003
-2.008610e-003 6.181867e-003 1.000000e-003
-2.767565e-003 5.881376e-003 1.000000e-003
-4.081380e-004 6.487174e-003 1.000000e-003
-1.217979e-003 6.384867e-003 1.000000e-003
1.217979e-003 6.384867e-003 1.000000e-003
4.081380e-004 6.487174e-003 1.000000e-003
2.008610e-003 6.181867e-003 1.000000e-003
2.767565e-003 5.881376e-003 1.000000e-003
3.482874e-003 5.488132e-003 1.000000e-003
4.143256e-003 5.008336e-003 1.000000e-003
4.738296e-003 4.449556e-003 1.000000e-003
5.258610e-003 3.820604e-003 1.000000e-003
5.695993e-003 3.131399e-003 1.000000e-003
6.043547e-003 2.392810e-003 1.000000e-003
6.295791e-003 1.616484e-003 1.000000e-003
6.448746e-003 8.146660e-004 1.000000e-003
9.418600e-005 1.549704e-002 1.000000e-003
4.635260e-004 1.542659e-002 1.000000e-003
8.037400e-004 1.526649e-002 1.000000e-003
1.452875e-003 1.362697e-002 1.000000e-003
1.500000e-003 1.400000e-002 1.000000e-003
1.314460e-003 1.327737e-002 1.000000e-003
1.093453e-003 1.502682e-002 1.000000e-003
1.314460e-003 1.472263e-002 1.000000e-003
1.093453e-003 1.297318e-002 1.000000e-003
1.452875e-003 1.437303e-002 1.000000e-003
8.037400e-004 1.273351e-002 1.000000e-003
4.635260e-004 1.257341e-002 1.000000e-003
9.418600e-005 1.250296e-002 1.000000e-003
-2.810720e-004 1.252657e-002 1.000000e-003
-6.386690e-004 1.264276e-002 1.000000e-003
-9.561360e-004 1.284423e-002 1.000000e-003
-1.213526e-003 1.311832e-002 1.000000e-003
-1.394665e-003 1.344781e-002 1.000000e-003
-1.488172e-003 1.381200e-002 1.000000e-003
-1.488172e-003 1.418800e-002 1.000000e-003
-1.394665e-003 1.455219e-002 1.000000e-003
-1.213526e-003 1.488168e-002 1.000000e-003
-9.561360e-004 1.515577e-002 1.000000e-003
-6.386690e-004 1.535724e-002 1.000000e-003
-2.810720e-004 1.547343e-002 1.000000e-003
-1.244804e-002 -2.004307e-002 1.000000e-003
1.269134e-002 -1.344763e-002 1.000000e-003
1.770188e-002 -5.304776e-003 1.000000e-003
4.263457e-003 -1.799916e-002 1.000000e-003
1.797602e-002 4.229321e-003 1.000000e-003
-5.318118e-003 -1.771623e-002 1.000000e-003
5.146812e-003 -5.455302e-003 1.000000e-003
5.745333e-003 -4.820907e-003 1.000000e-003
4.478690e-003 -6.015924e-003 1.000000e-003
6.266159e-003 -4.121317e-003 1.000000e-003
3.750000e-003 -6.495191e-003 1.000000e-003
6.702245e-003 -3.365994e-003 1.000000e-003
2.970598e-003 -6.886621e-003 1.000000e-003
7.047695e-003 -2.565151e-003 1.000000e-003
2.151024e-003 -7.184921e-003 1.000000e-003
7.297836e-003 -1.729619e-003 1.000000e-003
1.302361e-003 -7.386058e-003 1.000000e-003
7.449288e-003 -8.706970e-004 1.000000e-003
4.360860e-004 -7.487311e-003 1.000000e-003
7.500000e-003 0.000000e+000 1.000000e-003
-4.360860e-004 -7.487311e-003 1.000000e-003
7.449288e-003 8.706970e-004 1.000000e-003
-1.302361e-003 -7.386058e-003 1.000000e-003
7.297836e-003 1.729619e-003 1.000000e-003
-2.151024e-003 -7.184921e-003 1.000000e-003
7.047695e-003 2.565151e-003 1.000000e-003
-2.970598e-003 -6.886621e-003 1.000000e-003
6.702245e-003 3.365994e-003 1.000000e-003
-3.750000e-003 -6.495191e-003 1.000000e-003
1.347363e-002 1.261258e-002 1.000000e-003
6.266159e-003 4.121317e-003 1.000000e-003
5.745333e-003 4.820907e-003 1.000000e-003
5.146812e-003 5.455302e-003 1.000000e-003
-1.346461e-002 -1.267332e-002 1.000000e-003
-4.478690e-003 -6.015924e-003 1.000000e-003
-5.146812e-003 -5.455302e-003 1.000000e-003
-5.745333e-003 -4.820907e-003 1.000000e-003
4.478690e-003 6.015924e-003 1.000000e-003
-6.266159e-003 -4.121317e-003 1.000000e-003
3.750000e-003 6.495191e-003 1.000000e-003
-6.702245e-003 -3.365994e-003 1.000000e-003
2.151024e-003 7.184921e-003 1.000000e-003
2.970598e-003 6.886621e-003 1.000000e-003
1.302361e-003 7.386058e-003 1.000000e-003
4.360860e-004 7.487311e-003 1.000000e-003
5.411438e-003 1.763790e-002 1.000000e-003
-4.360860e-004 7.487311e-003 1.000000e-003
-1.302361e-003 7.386058e-003 1.000000e-003
-1.798577e-002 -4.243752e-003 1.000000e-003
-7.449288e-003 -8.706970e-004 1.000000e-003
-7.500000e-003 0.000000e+000 1.000000e-003
-7.297836e-003 -1.729619e-003 1.000000e-003
-7.047695e-003 -2.565151e-003 1.000000e-003
-2.151024e-003 7.184921e-003 1.000000e-003
-2.970598e-003 6.886621e-003 1.000000e-003
-3.750000e-003 6.495191e-003 1.000000e-003
-4.353207e-003 1.791806e-002 1.000000e-003
-6.702245e-003 3.365994e-003 1.000000e-003
-6.266159e-003 4.121317e-003 1.000000e-003
-1.769145e-002 5.294992e-003 1.000000e-003
-7.047695e-003 2.565151e-003 1.000000e-003
-7.297836e-003 1.729619e-003 1.000000e-003
-7.449288e-003 8.706970e-004 1.000000e-003
-1.269318e-002 1.339773e-002 1.000000e-003
-4.478690e-003 6.015924e-003 1.000000e-003
-5.146812e-003 5.455302e-003 1.000000e-003
-5.745333e-003 4.820907e-003 1.000000e-003
-8.572834e-003 -1.983030e-002 5.683749e-003
-1.734010e-002 -1.288081e-002 5.683749e-003
-7.444160e-004 -2.358228e-002 1.000000e-003
-2.080432e-002 -1.113105e-002 1.000000e-003
2.503936e-003 -2.145844e-002 5.683749e-003
-2.145057e-002 -2.495134e-003 5.683749e-003
1.115889e-002 -2.078940e-002 1.000000e-003
-2.358463e-002 7.465150e-004 1.000000e-003
1.290402e-002 -1.732284e-002 5.683749e-003
-1.983077e-002 8.533175e-003 5.683749e-003
2.006070e-002 -1.242419e-002 1.000000e-003
-2.007365e-002 1.240661e-002 1.000000e-003
1.983055e-002 -8.549972e-003 5.683749e-003
-1.294448e-002 1.727062e-002 5.683749e-003
2.358635e-002 -7.480440e-004 1.000000e-003
-1.123399e-002 2.075441e-002 1.000000e-003
2.144483e-002 2.488683e-003 5.683749e-003
-2.548256e-003 2.141851e-002 5.635628e-003
2.082143e-002 1.110928e-002 1.000000e-003
7.433050e-004 2.358105e-002 1.000000e-003
1.734797e-002 1.284063e-002 5.683749e-003
8.655698e-003 1.976799e-002 5.683749e-003
1.252981e-002 1.999985e-002 1.000000e-003
6.500000e-003 0.000000e+000 3.000000e-003
6.448746e-003 8.146660e-004 3.000000e-003
6.295791e-003 1.616484e-003 3.000000e-003
6.043547e-003 2.392810e-003 3.000000e-003
5.695993e-003 3.131399e-003 3.000000e-003
5.258610e-003 3.820604e-003 3.000000e-003
4.738296e-003 4.449556e-003 3.000000e-003
4.143256e-003 5.008336e-003 3.000000e-003
3.482874e-003 5.488132e-003 3.000000e-003
2.767565e-003 5.881376e-003 3.000000e-003
2.008610e-003 6.181867e-003 3.000000e-003
1.217979e-003 6.384867e-003 3.000000e-003
4.081380e-004 6.487174e-003 3.000000e-003
-4.081380e-004 6.487174e-003 3.000000e-003
-1.217979e-003 6.384867e-003 3.000000e-003
-2.008610e-003 6.181867e-003 3.000000e-003
-2.767565e-003 5.881376e-003 3.000000e-003
-3.482874e-003 5.488132e-003 3.000000e-003
-4.143256e-003 5.008336e-003 3.000000e-003
-4.738296e-003 4.449556e-003 3.000000e-003
-5.258610e-003 3.820604e-003 3.000000e-003
-5.695993e-003 3.131399e-003 3.000000e-003
-6.043547e-003 2.392810e-003 3.000000e-003
-6.295791e-003 1.616484e-003 3.000000e-003
-6.448746e-003 8.146660e-004 3.000000e-003
-6.500000e-003 0.000000e+000 3.000000e-003
-6.448746e-003 -8.146660e-004 3.000000e-003
-6.295791e-003 -1.616484e-003 3.000000e-003
-6.043547e-003 -2.392810e-003 3.000000e-003
-5.695993e-003 -3.131399e-003 3.000000e-003
-5.258610e-003 -3.820604e-003 3.000000e-003
-4.738296e-003 -4.449556e-003 3.000000e-003
-4.143256e-003 -5.008336e-003 3.000000e-003
-3.482874e-003 -5.488132e-003 3.000000e-003
-2.767565e-003 -5.881376e-003 3.000000e-003
-2.008610e-003 -6.181867e-003 3.000000e-003
-1.217979e-003 -6.384867e-003 3.000000e-003
-4.081380e-004 -6.487174e-003 3.000000e-003
4.081380e-004 -6.487174e-003 3.000000e-003
1.217979e-003 -6.384867e-003 3.000000e-003
2.008610e-003 -6.181867e-003 3.000000e-003
2.767565e-003 -5.881376e-003 3.000000e-003
3.482874e-003 -5.488132e-003 3.000000e-003
4.143256e-003 -5.008336e-003 3.000000e-003
4.738296e-003 -4.449556e-003 3.000000e-003
5.258610e-003 -3.820604e-003 3.000000e-003
5.695993e-003 -3.131399e-003 3.000000e-003
6.043547e-003 -2.392810e-003 3.000000e-003
6.295791e-003 -1.616484e-003 3.000000e-003
6.448746e-003 -8.146660e-004 3.000000e-003
-8.883080e-003 -1.887965e-002 5.683749e-003
1.759521e-003 -2.079072e-002 5.683749e-003
-1.713446e-002 -1.190219e-002 5.683749e-003
1.192512e-002 -1.711851e-002 5.683749e-003
-2.078520e-002 -1.748619e-003 5.683749e-003
1.888129e-002 -8.864481e-003 5.683749e-003
-1.888255e-002 8.850802e-003 5.683749e-003
2.078119e-002 1.740638e-003 5.683749e-003
-1.196359e-002 1.707607e-002 5.683749e-003
1.714753e-002 1.186093e-002 5.683749e-003
-1.804951e-003 2.074956e-002 5.635628e-003
8.970624e-003 1.881887e-002 5.683749e-003
7.500000e-003 0.000000e+000 3.000000e-003
7.449288e-003 8.706970e-004 3.000000e-003
7.297836e-003 1.729619e-003 3.000000e-003
7.047695e-003 2.565151e-003 3.000000e-003
6.702245e-003 3.365994e-003 3.000000e-003
6.266159e-003 4.121317e-003 3.000000e-003
5.745333e-003 4.820907e-003 3.000000e-003
5.146812e-003 5.455302e-003 3.000000e-003
4.478690e-003 6.015924e-003 3.000000e-003
3.750000e-003 6.495191e-003 3.000000e-003
2.970598e-003 6.886621e-003 3.000000e-003
2.151024e-003 7.184921e-003 3.000000e-003
1.302361e-003 7.386058e-003 3.000000e-003
4.360860e-004 7.487311e-003 3.000000e-003
-4.360860e-004 7.487311e-003 3.000000e-003
-1.302361e-003 7.386058e-003 3.000000e-003
-2.151024e-003 7.184921e-003 3.000000e-003
-2.970598e-003 6.886621e-003 3.000000e-003
-3.750000e-003 6.495191e-003 3.000000e-003
-4.478690e-003 6.015924e-003 3.000000e-003
-5.146812e-003 5.455302e-003 3.000000e-003
-5.745333e-003 4.820907e-003 3.000000e-003
-6.266159e-003 4.121317e-003 3.000000e-003
-6.702245e-003 3.365994e-003 3.000000e-003
-7.047695e-003 2.565151e-003 3.000000e-003
-7.297836e-003 1.729619e-003 3.000000e-003
-7.449288e-003 8.706970e-004 3.000000e-003
-7.500000e-003 0.000000e+000 3.000000e-003
-7.449288e-003 -8.706970e-004 3.000000e-003
-7.297836e-003 -1.729619e-003 3.000000e-003
-7.047695e-003 -2.565151e-003 3.000000e-003
-6.702245e-003 -3.365994e-003 3.000000e-003
-6.266159e-003 -4.121317e-003 3.000000e-003
-5.745333e-003 -4.820907e-003 3.000000e-003
-5.146812e-003 -5.455302e-003 3.000000e-003
-4.478690e-003 -6.015924e-003 3.000000e-003
-3.750000e-003 -6.495191e-003 3.000000e-003
-2.970598e-003 -6.886621e-003 3.000000e-003
-2.151024e-003 -7.184921e-003 3.000000e-003
-1.302361e-003 -7.386058e-003 3.000000e-003
-4.360860e-004 -7.487311e-003 3.000000e-003
4.360860e-004 -7.487311e-003 3.000000e-003
1.302361e-003 -7.386058e-003 3.000000e-003
2.151024e-003 -7.184921e-003 3.000000e-003
2.970598e-003 -6.886621e-003 3.000000e-003
4.478690e-003 -6.015924e-003 3.000000e-003
3.750000e-003 -6.495191e-003 3.000000e-003
5.146812e-003 -5.455302e-003 3.000000e-003
5.745333e-003 -4.820907e-003 3.000000e-003
6.266159e-003 -4.121317e-003 3.000000e-003
6.702245e-003 -3.365994e-003 3.000000e-003
7.047695e-003 -2.565151e-003 3.000000e-003
7.297836e-003 -1.729619e-003 3.000000e-003
7.449288e-003 -8.706970e-004 3.000000e-003
3 0 1 2
3 3 4 1
3 5 6 0
3 7 0 6
3 8 5 0
3 9 0 7
3 10 0 11
3 10 8 0
3 12 1 0
3 12 0 9
3 13 10 11
3 14 1 12
3 15 1 14
3 16 17 3
3 18 19 13
3 18 20 19
3 18 21 20
3 18 13 11
3 22 21 18
3 23 22 18
3 24 23 18
3 25 26 1
3 27 1 26
3 28 1 15
3 28 25 1
3 29 3 1
3 29 1 27
3 30 15 31
3 30 28 15
3 32 3 29
3 33 30 31
3 33 31 34
3 35 3 32
3 36 33 34
3 36 34 37
3 38 3 35
3 39 36 37
3 39 37 40
3 41 16 3
3 41 3 38
3 42 39 40
3 42 40 43
3 44 16 41
3 45 42 43
3 45 43 46
3 47 16 44
3 48 45 46
3 48 46 49
3 50 16 47
3 51 48 49
3 51 49 52
3 53 16 50
3 54 51 52
3 54 52 55
3 56 57 16
3 56 16 53
3 56 58 59
3 56 53 58
3 60 18 61
3 60 54 55
3 60 55 24
3 60 62 54
3 60 24 18
3 63 62 60
3 64 56 59
3 65 63 60
3 66 56 64
3 67 65 60
3 68 69 70
3 71 68 70
3 71 70 72
3 73 69 68
3 73 56 66
3 73 66 69
3 74 71 72
3 74 72 75
3 76 56 73
3 77 74 75
3 77 75 78
3 79 77 78
3 79 78 80
3 81 79 80
3 81 80 82
3 83 56 76
3 83 84 85
3 83 86 84
3 83 87 56
3 83 76 86
3 88 60 89
3 88 67 60
3 88 90 67
3 88 91 90
3 88 92 91
3 88 93 92
3 94 81 82
3 94 82 95
3 96 83 85
3 97 94 95
3 97 95 98
3 99 83 96
3 100 97 98
3 101 83 99
3 102 83 101
3 103 93 88
3 103 104 93
3 103 105 104
3 103 106 105
3 103 107 106
3 108 109 110
3 108 111 109
3 108 112 111
3 108 113 112
3 108 114 113
3 108 115 114
3 116 102 115
3 116 83 102
3 116 115 108
3 117 103 88
3 118 110 100
3 118 100 98
3 118 108 110
3 118 107 103
3 118 119 107
3 118 120 119
3 118 121 120
3 118 98 121
3 122 118 103
3 123 108 118
3 124 61 125
3 60 124 126
3 60 61 124
3 125 61 18
3 127 125 18
3 128 89 60
3 126 128 60
3 127 18 129
3 130 129 11
3 129 18 11
3 131 89 128
3 88 131 132
3 88 89 131
3 130 0 133
3 11 0 130
3 117 88 132
3 117 132 134
3 135 2 136
3 0 135 133
3 0 2 135
3 137 117 134
3 103 137 138
3 103 117 137
3 136 2 1
3 139 136 1
3 122 103 138
3 122 138 140
3 141 4 142
3 1 141 139
3 1 4 141
3 143 122 140
3 118 143 144
3 118 122 143
3 142 3 145
3 4 3 142
3 123 118 144
3 123 144 146
3 147 17 148
3 3 147 145
3 3 17 147
3 149 123 146
3 108 149 150
3 108 123 149
3 17 16 151
3 17 151 148
3 116 108 150
3 116 150 152
3 153 57 154
3 16 153 151
3 16 57 153
3 155 83 156
3 152 156 116
3 156 83 116
3 154 56 157
3 57 56 154
3 87 83 155
3 87 155 158
3 159 87 158
3 56 159 157
3 56 87 159
3 160 40 37
3 161 160 37
3 161 37 34
3 162 161 34
3 163 164 9
3 165 163 9
3 164 12 9
3 162 34 31
3 166 162 31
3 165 9 7
3 167 166 15
3 166 31 15
3 168 165 6
3 165 7 6
3 167 15 14
3 169 167 14
3 164 169 14
3 170 168 5
3 164 14 12
3 168 6 5
3 171 170 8
3 172 171 8
3 170 5 8
3 172 8 10
3 173 172 13
3 172 10 13
3 174 173 19
3 173 13 19
3 175 174 20
3 176 175 20
3 174 19 20
3 176 20 21
3 177 176 22
3 176 21 22
3 177 22 23
3 178 177 23
3 179 178 23
3 179 23 24
3 179 24 55
3 180 179 55
3 181 180 55
3 181 55 52
3 181 52 49
3 182 181 49
3 182 49 46
3 183 182 46
3 183 46 43
3 184 183 43
3 184 43 40
3 160 184 40
3 185 186 41
3 185 41 38
3 187 185 38
3 187 38 35
3 188 187 35
3 188 35 32
3 189 188 32
3 189 32 29
3 190 189 29
3 190 29 27
3 191 190 27
3 191 27 26
3 192 191 26
3 192 26 25
3 193 192 25
3 193 25 28
3 194 193 28
3 195 194 30
3 194 28 30
3 196 195 33
3 195 30 33
3 197 196 36
3 196 33 36
3 198 197 39
3 197 36 39
3 198 39 42
3 199 198 45
3 198 42 45
3 200 201 48
3 201 199 48
3 199 45 48
3 200 48 51
3 202 200 54
3 200 51 54
3 203 202 62
3 202 54 62
3 204 203 63
3 203 62 63
3 205 204 65
3 204 63 65
3 206 205 67
3 205 65 67
3 207 206 90
3 206 67 90
3 208 207 91
3 207 90 91
3 208 91 92
3 209 208 92
3 209 92 93
3 210 209 93
3 210 93 104
3 211 210 104
3 211 104 105
3 212 211 105
3 212 105 106
3 213 212 106
3 214 213 107
3 213 106 107
3 215 214 119
3 214 107 119
3 216 215 120
3 215 119 120
3 217 216 121
3 216 120 121
3 218 217 98
3 217 121 98
3 219 220 95
3 220 218 95
3 218 98 95
3 219 95 82
3 221 222 80
3 222 219 80
3 219 82 80
3 221 80 78
3 223 224 75
3 224 221 75
3 221 78 75
3 225 223 72
3 223 75 72
3 226 225 70
3 225 72 70
3 227 226 69
3 226 70 69
3 228 227 66
3 227 69 66
3 229 228 64
3 228 66 64
3 230 229 59
3 229 64 59
3 231 230 58
3 230 59 58
3 232 231 53
3 231 58 53
3 233 232 50
3 232 53 50
3 234 233 47
3 233 50 47
3 234 47 44
3 186 234 41
3 234 44 41
3 235 102 101
3 236 235 101
3 236 101 99
3 237 236 99
3 238 239 76
3 240 238 76
3 239 86 76
3 237 99 96
3 241 237 96
3 240 76 73
3 242 241 85
3 241 96 85
3 243 240 68
3 240 73 68
3 242 85 84
3 244 242 84
3 239 244 84
3 245 243 71
3 239 84 86
3 243 68 71
3 246 245 74
3 247 246 74
3 245 71 74
3 247 74 77
3 248 247 79
3 247 77 79
3 249 248 81
3 248 79 81
3 250 249 94
3 251 250 94
3 249 81 94
3 251 94 97
3 252 251 100
3 251 97 100
3 252 100 110
3 253 252 110
3 254 253 110
3 254 110 109
3 254 109 111
3 255 254 111
3 256 255 111
3 256 111 112
3 256 112 113
3 257 256 113
3 257 113 114
3 258 257 114
3 258 114 115
3 259 258 115
3 259 115 102
3 235 259 102
3 125 260 124
3 135 261 133
3 261 139 262
3 139 141 262
3 133 261 263
3 263 168 170
3 168 263 165
3 263 170 171
3 165 263 163
3 129 263 172
3 263 171 172
3 263 261 164
3 163 263 164
3 129 172 173
3 164 261 169
3 262 145 264
3 145 147 264
3 173 174 127
3 174 175 127
3 129 173 127
3 175 176 265
3 176 177 265
3 177 178 265
3 127 175 265
3 265 178 179
3 265 179 180
3 266 261 267
3 261 266 268
3 261 262 269
3 267 261 269
3 167 169 270
3 169 261 270
3 261 268 270
3 269 262 271
3 167 270 272
3 166 167 272
3 271 262 273
3 166 272 274
3 162 166 274
3 273 262 275
3 161 162 276
3 162 274 276
3 275 262 277
3 160 161 278
3 161 276 278
3 277 262 279
3 262 264 279
3 184 160 280
3 160 278 280
3 279 264 281
3 182 183 282
3 183 184 282
3 184 280 282
3 281 264 283
3 182 282 284
3 181 182 284
3 283 264 285
3 181 284 286
3 285 264 287
3 180 181 288
3 181 286 288
3 264 151 289
3 151 153 289
3 287 264 289
3 290 287 289
3 291 290 289
3 124 265 126
3 291 289 292
3 265 180 293
3 126 265 293
3 180 288 293
3 294 295 293
3 288 294 293
3 293 295 296
3 292 289 297
3 293 296 298
3 297 289 299
3 293 298 300
3 301 302 243
3 301 243 245
3 303 301 245
3 243 302 240
3 302 299 240
3 303 245 246
3 304 303 246
3 240 299 238
3 299 289 238
3 289 157 305
3 157 159 305
3 238 289 305
3 304 246 247
3 306 304 247
3 238 305 239
3 307 306 248
3 306 247 248
3 239 305 244
3 307 248 249
3 244 305 242
3 131 293 132
3 132 293 308
3 309 310 308
3 311 309 308
3 312 311 308
3 300 312 308
3 293 300 308
3 307 249 250
3 313 307 250
3 242 305 241
3 314 313 251
3 315 314 251
3 313 250 251
3 305 155 237
3 241 305 237
3 315 251 252
3 237 155 236
3 253 254 316
3 254 255 316
3 255 256 316
3 256 257 316
3 257 258 316
3 258 259 316
3 259 235 156
3 235 236 156
3 236 155 156
3 316 259 156
3 317 318 319
3 320 317 319
3 321 320 319
3 322 321 319
3 310 322 319
3 308 310 319
3 308 319 138
3 308 138 137
3 319 318 323
3 316 150 323
3 252 253 323
3 315 252 323
3 324 315 323
3 325 324 323
3 326 325 323
3 318 326 323
3 253 316 323
3 319 323 144
3 323 150 149
3 319 144 143
3 327 125 127
3 328 128 126
3 130 329 129
3 128 330 131
3 331 130 133
3 332 134 132
3 136 333 135
3 134 334 137
3 136 139 335
3 336 140 138
3 142 337 141
3 140 338 143
3 339 142 145
3 146 144 340
3 148 341 147
3 342 149 146
3 148 151 343
3 152 150 344
3 154 345 153
3 152 346 156
3 154 157 347
3 348 158 155
3 349 159 158
3 234 186 350
3 234 350 351
3 233 234 351
3 233 351 352
3 232 233 352
3 232 352 353
3 231 232 353
3 231 353 354
3 230 231 354
3 230 354 355
3 229 230 355
3 229 355 356
3 228 229 356
3 228 356 357
3 228 357 358
3 227 228 358
3 226 227 358
3 226 358 359
3 226 359 360
3 225 226 360
3 223 225 360
3 223 360 361
3 223 361 362
3 224 223 362
3 224 362 363
3 221 224 363
3 222 221 363
3 222 363 364
3 219 222 364
3 219 364 365
3 220 365 366
3 220 219 365
3 220 366 367
3 218 220 367
3 217 367 368
3 217 218 367
3 216 368 369
3 216 369 370
3 216 217 368
3 215 216 370
3 214 370 371
3 214 215 370
3 213 371 372
3 213 214 371
3 212 372 373
3 212 213 372
3 211 373 374
3 211 374 375
3 211 212 373
3 210 211 375
3 210 375 376
3 209 210 376
3 208 209 376
3 208 376 377
3 208 377 378
3 207 208 378
3 206 207 378
3 206 378 379
3 205 206 379
3 205 379 380
3 204 205 380
3 204 380 381
3 203 204 381
3 203 381 382
3 202 203 382
3 202 382 383
3 200 202 383
3 200 383 384
3 201 200 384
3 201 384 385
3 199 201 385
3 199 385 386
3 198 199 386
3 198 386 387
3 197 198 387
3 197 387 388
3 196 197 388
3 196 388 389
3 195 196 389
3 195 389 390
3 194 195 390
3 194 390 391
3 193 194 391
3 193 391 392
3 193 392 393
3 192 193 393
3 191 192 393
3 191 393 394
3 190 191 394
3 190 394 395
3 189 190 395
3 189 395 396
3 189 396 397
3 188 189 397
3 187 188 397
3 187 397 398
3 187 398 399
3 185 399 350
3 185 187 399
3 186 185 350
3 124 260 400
3 124 400 265
3 125 327 400
3 125 400 260
3 327 127 265
3 327 265 400
3 129 329 401
3 263 129 401
3 401 133 263
3 331 133 401
3 328 126 293
3 328 293 402
3 403 135 333
3 403 261 135
3 131 330 402
3 131 402 293
3 403 139 261
3 335 139 403
3 332 132 308
3 332 308 404
3 141 337 405
3 262 141 405
3 308 334 404
3 137 334 308
3 339 145 262
3 339 262 405
3 406 138 319
3 336 138 406
3 407 264 147
3 407 147 341
3 143 338 406
3 319 143 406
3 407 343 264
3 264 343 151
3 408 340 144
3 323 408 144
3 409 289 153
3 409 153 345
3 408 149 342
3 408 323 149
3 347 157 289
3 347 289 409
3 410 150 316
3 344 150 410
3 305 349 411
3 159 349 305
3 410 156 346
3 410 316 156
3 411 348 155
3 305 411 155
3 412 279 281
3 413 412 281
3 413 281 283
3 414 413 283
3 414 283 285
3 415 414 285
3 415 285 287
3 416 415 287
3 416 287 290
3 417 416 290
3 417 290 291
3 418 417 291
3 418 291 292
3 419 418 292
3 419 292 297
3 420 419 297
3 420 297 299
3 421 420 299
3 422 421 299
3 422 299 302
3 422 302 301
3 423 422 301
3 423 301 303
3 424 423 303
3 425 424 304
3 424 303 304
3 426 425 304
3 426 304 306
3 427 426 307
3 428 427 307
3 426 306 307
3 428 307 313
3 429 428 314
3 430 429 314
3 428 313 314
3 430 314 315
3 431 430 324
3 430 315 324
3 432 431 325
3 433 432 325
3 431 324 325
3 433 325 326
3 434 433 318
3 433 326 318
3 434 318 317
3 435 434 317
3 435 317 320
3 436 435 320
3 437 436 320
3 437 320 321
3 437 321 322
3 438 437 322
3 438 322 310
3 439 438 310
3 440 439 310
3 440 310 309
3 440 309 311
3 441 440 311
3 441 311 312
3 442 441 312
3 443 442 312
3 443 312 300
3 443 300 298
3 444 443 298
3 444 298 296
3 445 444 296
3 446 445 296
3 446 296 295
3 446 295 294
3 447 446 294
3 447 294 288
3 448 447 288
3 448 288 286
3 449 448 286
3 449 286 284
3 450 449 284
3 450 284 282
3 451 450 282
3 451 282 280
3 452 451 280
3 452 280 278
3 453 452 278
3 454 453 278
3 454 278 276
3 454 276 274
3 455 454 274
3 455 274 272
3 456 455 272
3 457 458 270
3 456 272 270
3 458 456 270
3 457 270 268
3 459 457 266
3 457 268 266
3 460 459 267
3 459 266 267
3 461 460 269
3 460 267 269
3 462 461 271
3 463 462 271
3 461 269 271
3 463 271 273
3 464 463 275
3 463 273 275
3 465 464 277
3 464 275 277
3 412 465 279
3 465 277 279
3 128 328 402
3 128 402 330
3 329 331 401
3 130 331 329
3 134 332 404
3 134 404 334
3 333 335 403
3 136 335 333
3 140 336 406
3 140 406 338
3 337 339 405
3 142 339 337
3 342 146 340
3 408 342 340
3 341 148 343
3 407 341 343
3 152 344 410
3 152 410 346
3 154 347 409
3 154 409 345
3 349 158 348
3 411 349 348
3 459 460 394
3 459 394 393
3 457 459 393
3 394 460 395
3 460 461 395
3 457 393 392
3 458 457 392
3 395 461 396
3 461 462 396
3 458 392 391
3 456 458 391
3 396 462 397
3 462 463 397
3 456 391 390
3 455 456 390
3 397 463 398
3 463 464 398
3 454 455 389
3 455 390 389
3 398 464 399
3 464 465 399
3 454 389 388
3 453 454 388
3 412 413 350
3 465 412 350
3 399 465 350
3 453 388 387
3 451 452 387
3 452 453 387
3 350 413 351
3 351 413 414
3 451 387 386
3 451 386 450
3 351 414 352
3 352 414 415
3 450 386 385
3 450 385 449
3 352 415 353
3 353 415 416
3 449 385 384
3 449 384 448
3 353 416 354
3 354 416 417
3 448 384 383
3 448 383 447
3 354 417 355
3 355 417 418
3 447 383 382
3 447 382 446
3 355 418 356
3 446 382 381
3 356 418 419
3 356 419 357
3 446 381 445
3 445 381 380
3 357 419 420
3 357 420 358
3 445 380 444
3 444 380 379
3 358 420 421
3 358 421 359
3 444 379 443
3 443 379 378
3 359 421 422
3 359 422 360
3 443 378 442
3 442 378 377
3 360 422 423
3 360 423 361
3 442 377 441
3 441 377 376
3 361 423 424
3 362 361 424
3 441 376 440
3 376 375 440
3 362 424 425
3 363 362 425
3 440 375 439
3 363 425 426
3 439 375 438
3 375 374 438
3 364 363 427
3 363 426 427
3 374 373 437
3 438 374 437
3 365 364 428
3 364 427 428
3 373 372 436
3 437 373 436
3 366 365 429
3 365 428 429
3 372 371 435
3 436 372 435
3 366 429 430
3 367 366 430
3 435 371 434
3 371 370 434
3 367 430 431
3 368 367 431
3 434 370 433
3 370 369 433
3 369 368 432
3 433 369 432
3 368 431 432
